<svg width="20" height="20" viewBox="0 0 20 20" fill="none" xmlns="http://www.w3.org/2000/svg">
<rect width="20" height="20" rx="10" fill="#F97316"/>
<path d="M10.0342 14.0994C9.50388 14.0994 9.03276 14.0036 8.62083 13.8118C8.2089 13.62 7.88337 13.3561 7.64426 13.0199C7.40752 12.6837 7.28442 12.2978 7.27495 11.8622H8.97949C8.9937 12.1297 9.1026 12.3452 9.3062 12.5085C9.5098 12.6695 9.75246 12.75 10.0342 12.75C10.2544 12.75 10.4497 12.7015 10.6201 12.6044C10.7906 12.5073 10.9243 12.3712 11.0214 12.196C11.1185 12.0185 11.1658 11.8149 11.1634 11.5852C11.1658 11.3509 11.1173 11.1461 11.0178 10.9709C10.9208 10.7957 10.7858 10.6596 10.613 10.5625C10.4426 10.4631 10.2461 10.4134 10.0235 10.4134C9.81283 10.411 9.61278 10.4571 9.42338 10.5518C9.23636 10.6465 9.09431 10.7756 8.99725 10.9389L7.4454 10.6477L7.76145 6.72727H12.4276V8.14418H9.20676L9.03986 9.85938H9.08248C9.20321 9.65814 9.39734 9.49242 9.66486 9.36222C9.93475 9.22964 10.2413 9.16335 10.5846 9.16335C11.0202 9.16335 11.4085 9.26515 11.7494 9.46875C12.0927 9.66998 12.3625 9.94934 12.559 10.3068C12.7579 10.6643 12.8573 11.0739 12.8573 11.5355C12.8573 12.035 12.739 12.4777 12.5022 12.8636C12.2678 13.2495 11.9388 13.5526 11.515 13.7727C11.0936 13.9905 10.6 14.0994 10.0342 14.0994Z" fill="#1E3A8A"/>
</svg>
