<svg width="23" height="20" viewBox="0 0 23 20" fill="none" xmlns="http://www.w3.org/2000/svg">
<path d="M10 5.36664V8.14164" stroke="#292D32" stroke-width="1.5" stroke-miterlimit="10" stroke-linecap="round"/>
<path d="M10.0171 1.6665C6.9504 1.6665 4.46707 4.14984 4.46707 7.2165V8.9665C4.46707 9.53317 4.23374 10.3832 3.94207 10.8665L2.88374 12.6332C2.23374 13.7248 2.68374 14.9415 3.88374 15.3415C7.86707 16.6665 12.1754 16.6665 16.1587 15.3415C17.2837 14.9665 17.7671 13.6498 17.1587 12.6332L16.1004 10.8665C15.8087 10.3832 15.5754 9.52484 15.5754 8.9665V7.2165C15.5671 4.1665 13.0671 1.6665 10.0171 1.6665Z" stroke="#292D32" stroke-width="1.5" stroke-miterlimit="10" stroke-linecap="round"/>
<path d="M12.7746 15.6831C12.7746 17.2081 11.5246 18.4581 9.99961 18.4581C9.24128 18.4581 8.54128 18.1414 8.04128 17.6414C7.54128 17.1414 7.22461 16.4414 7.22461 15.6831" stroke="#292D32" stroke-width="1.5" stroke-miterlimit="10"/>
<rect x="11" y="1" width="12" height="12" rx="6" fill="#F97316"/>
<path d="M15.3443 9.45C15.9843 8.89667 16.4876 8.44333 16.8543 8.09C17.2276 7.73 17.5376 7.35667 17.7843 6.97C18.0309 6.58333 18.1543 6.19667 18.1543 5.81C18.1543 5.41 18.0576 5.09667 17.8643 4.87C17.6776 4.64333 17.3809 4.53 16.9743 4.53C16.5809 4.53 16.2743 4.65667 16.0543 4.91C15.8409 5.15667 15.7276 5.49 15.7143 5.91H14.6143C14.6343 5.15 14.8609 4.57 15.2943 4.17C15.7343 3.76333 16.2909 3.56 16.9643 3.56C17.6909 3.56 18.2576 3.76 18.6643 4.16C19.0776 4.56 19.2843 5.09333 19.2843 5.76C19.2843 6.24 19.1609 6.70333 18.9143 7.15C18.6743 7.59 18.3843 7.98667 18.0443 8.34C17.7109 8.68667 17.2843 9.09 16.7643 9.55L16.3143 9.95H19.4843V10.9H14.6243V10.07L15.3443 9.45Z" fill="white"/>
</svg>
