<svg width="20" height="20" viewBox="0 0 20 20" fill="none" xmlns="http://www.w3.org/2000/svg">
<path d="M14.1666 7.49996C14.1666 10.725 11.3666 13.3333 7.91663 13.3333L7.14163 14.2666L6.6833 14.8167C6.29163 15.2833 5.54162 15.1833 5.28329 14.6249L4.16663 12.1666C2.64996 11.0999 1.66663 9.40829 1.66663 7.49996C1.66663 4.27496 4.46663 1.66663 7.91663 1.66663C10.4333 1.66663 12.6083 3.0583 13.5833 5.0583C13.9583 5.79997 14.1666 6.62496 14.1666 7.49996Z" stroke="#BDBDBD" stroke-width="1.5" stroke-linecap="round" stroke-linejoin="round"/>
<path d="M18.3334 10.7167C18.3334 12.625 17.3501 14.3167 15.8334 15.3834L14.7167 17.8417C14.4584 18.4 13.7084 18.5084 13.3167 18.0334L12.0834 16.55C10.0667 16.55 8.26672 15.6583 7.14172 14.2667L7.91672 13.3333C11.3667 13.3333 14.1667 10.725 14.1667 7.50001C14.1667 6.62501 13.9584 5.80002 13.5834 5.05835C16.3084 5.68335 18.3334 7.98333 18.3334 10.7167Z" stroke="#BDBDBD" stroke-width="1.5" stroke-linecap="round" stroke-linejoin="round"/>
<path d="M5.83337 7.5H10" stroke="#BDBDBD" stroke-width="1.5" stroke-linecap="round" stroke-linejoin="round"/>
</svg>
