<svg width="20" height="20" viewBox="0 0 20 20" fill="none" xmlns="http://www.w3.org/2000/svg">
<path d="M17.425 9.26671C17.425 13.3417 14.4666 17.1584 10.425 18.275C10.15 18.35 9.84995 18.35 9.57495 18.275C5.53328 17.1584 2.57495 13.3417 2.57495 9.26671V5.60836C2.57495 4.92503 3.09163 4.15003 3.7333 3.8917L8.37494 1.99172C9.41661 1.56672 10.5916 1.56672 11.6333 1.99172L16.275 3.8917C16.9083 4.15003 17.4333 4.92503 17.4333 5.60836L17.425 9.26671Z" stroke="#BDBDBD" stroke-width="1.5" stroke-linecap="round" stroke-linejoin="round"/>
<path d="M10 10.4167C10.9205 10.4167 11.6667 9.67052 11.6667 8.75004C11.6667 7.82957 10.9205 7.08337 10 7.08337C9.07957 7.08337 8.33337 7.82957 8.33337 8.75004C8.33337 9.67052 9.07957 10.4167 10 10.4167Z" stroke="#BDBDBD" stroke-width="1.5" stroke-miterlimit="10" stroke-linecap="round" stroke-linejoin="round"/>
<path d="M10 10.4167V12.9167" stroke="#BDBDBD" stroke-width="1.5" stroke-miterlimit="10" stroke-linecap="round" stroke-linejoin="round"/>
</svg>
