<svg width="230" height="40" viewBox="0 0 230 40" fill="none" xmlns="http://www.w3.org/2000/svg">
<rect x="1" y="1" width="38" height="38" rx="19" fill="#F9F9FA"/>
<rect x="1" y="1" width="38" height="38" rx="19" stroke="#EAECF2" stroke-width="2"/>
<path d="M17.652 20.288C18.2493 20.3947 18.756 20.7093 19.172 21.232C19.588 21.7547 19.796 22.3467 19.796 23.008C19.796 23.5733 19.6467 24.0853 19.348 24.544C19.06 24.992 18.6387 25.3493 18.084 25.616C17.5293 25.872 16.884 26 16.148 26H11.7V14.88H15.94C16.6973 14.88 17.348 15.008 17.892 15.264C18.436 15.52 18.8467 15.8667 19.124 16.304C19.4013 16.7307 19.54 17.2107 19.54 17.744C19.54 18.384 19.3693 18.9173 19.028 19.344C18.6867 19.7707 18.228 20.0853 17.652 20.288ZM13.524 19.552H15.78C16.3773 19.552 16.8413 19.4187 17.172 19.152C17.5133 18.8747 17.684 18.48 17.684 17.968C17.684 17.4667 17.5133 17.0773 17.172 16.8C16.8413 16.512 16.3773 16.368 15.78 16.368H13.524V19.552ZM15.988 24.512C16.6067 24.512 17.092 24.3627 17.444 24.064C17.796 23.7653 17.972 23.3493 17.972 22.816C17.972 22.272 17.7853 21.84 17.412 21.52C17.0387 21.2 16.5427 21.04 15.924 21.04H13.524V24.512H15.988ZM23.6021 16.352V19.616H27.4421V21.104H23.6021V24.512H27.9221V26H21.7781V14.864H27.9221V16.352H23.6021Z" fill="#1D1E20"/>
<path d="M56.176 9.954C56.176 10.234 56.1573 10.486 56.12 10.71H50.45C50.4967 11.27 50.6927 11.7087 51.038 12.026C51.3833 12.3433 51.808 12.502 52.312 12.502C53.04 12.502 53.558 12.1893 53.866 11.564H55.98C55.756 12.3107 55.3267 12.9267 54.692 13.412C54.0573 13.888 53.278 14.126 52.354 14.126C51.6073 14.126 50.9353 13.9627 50.338 13.636C49.75 13.3 49.288 12.8287 48.952 12.222C48.6253 11.6153 48.462 10.9153 48.462 10.122C48.462 9.31933 48.6253 8.61467 48.952 8.008C49.2787 7.40133 49.736 6.93467 50.324 6.608C50.912 6.28133 51.5887 6.118 52.354 6.118C53.0913 6.118 53.7493 6.27667 54.328 6.594C54.916 6.91133 55.3687 7.364 55.686 7.952C56.0127 8.53067 56.176 9.198 56.176 9.954ZM54.146 9.394C54.1367 8.89 53.9547 8.48867 53.6 8.19C53.2453 7.882 52.8113 7.728 52.298 7.728C51.8127 7.728 51.402 7.87733 51.066 8.176C50.7393 8.46533 50.5387 8.87133 50.464 9.394H54.146ZM62.6746 6.342C62.5813 5.95 62.418 5.656 62.1846 5.46C61.9606 5.264 61.634 5.166 61.2046 5.166C60.5606 5.166 60.0846 5.42733 59.7766 5.95C59.478 6.46333 59.324 7.30333 59.3146 8.47C59.5386 8.09667 59.8653 7.80733 60.2946 7.602C60.724 7.38733 61.1906 7.28 61.6946 7.28C62.3013 7.28 62.838 7.41067 63.3046 7.672C63.7713 7.93333 64.1353 8.316 64.3966 8.82C64.658 9.31467 64.7886 9.912 64.7886 10.612C64.7886 11.2747 64.6533 11.8673 64.3826 12.39C64.1213 12.9033 63.734 13.3047 63.2206 13.594C62.7073 13.8833 62.096 14.028 61.3866 14.028C60.416 14.028 59.6506 13.8133 59.0906 13.384C58.54 12.9547 58.1526 12.3573 57.9286 11.592C57.714 10.8173 57.6066 9.86533 57.6066 8.736C57.6066 7.028 57.9006 5.74 58.4886 4.872C59.0766 3.99467 60.0053 3.556 61.2746 3.556C62.2546 3.556 63.0153 3.822 63.5566 4.354C64.098 4.886 64.4106 5.54867 64.4946 6.342H62.6746ZM61.2466 8.89C60.752 8.89 60.3366 9.03467 60.0006 9.324C59.6646 9.61333 59.4966 10.0333 59.4966 10.584C59.4966 11.1347 59.6506 11.5687 59.9586 11.886C60.276 12.2033 60.7193 12.362 61.2886 12.362C61.7926 12.362 62.1893 12.208 62.4786 11.9C62.7773 11.592 62.9266 11.1767 62.9266 10.654C62.9266 10.1127 62.782 9.68333 62.4926 9.366C62.2126 9.04867 61.7973 8.89 61.2466 8.89ZM68.5217 7.448C68.7737 7.03733 69.1004 6.71533 69.5017 6.482C69.9124 6.24867 70.379 6.132 70.9017 6.132V8.19H70.3837C69.7677 8.19 69.301 8.33467 68.9837 8.624C68.6757 8.91333 68.5217 9.41733 68.5217 10.136V14H66.5617V6.244H68.5217V7.448ZM76.5899 6.132C77.1779 6.132 77.7005 6.26267 78.1579 6.524C78.6152 6.776 78.9699 7.154 79.2219 7.658C79.4832 8.15267 79.6139 8.75 79.6139 9.45V14H77.6539V9.716C77.6539 9.1 77.4999 8.62867 77.1919 8.302C76.8839 7.966 76.4639 7.798 75.9319 7.798C75.3905 7.798 74.9612 7.966 74.6439 8.302C74.3359 8.62867 74.1819 9.1 74.1819 9.716V14H72.2219V3.64H74.1819V7.21C74.4339 6.874 74.7699 6.61267 75.1899 6.426C75.6099 6.23 76.0765 6.132 76.5899 6.132ZM83.4377 7.448C83.6897 7.03733 84.0164 6.71533 84.4177 6.482C84.8284 6.24867 85.2951 6.132 85.8177 6.132V8.19H85.2997C84.6837 8.19 84.2171 8.33467 83.8997 8.624C83.5917 8.91333 83.4377 9.41733 83.4377 10.136V14H81.4777V6.244H83.4377V7.448ZM86.6339 10.094C86.6339 9.31 86.7879 8.61467 87.0959 8.008C87.4132 7.40133 87.8425 6.93467 88.3839 6.608C88.9252 6.28133 89.5272 6.118 90.1899 6.118C90.6939 6.118 91.1745 6.23 91.6319 6.454C92.0892 6.66867 92.4532 6.958 92.7239 7.322V3.64H94.7119V14H92.7239V12.852C92.4812 13.2347 92.1405 13.5427 91.7019 13.776C91.2632 14.0093 90.7545 14.126 90.1759 14.126C89.5225 14.126 88.9252 13.958 88.3839 13.622C87.8425 13.286 87.4132 12.8147 87.0959 12.208C86.7879 11.592 86.6339 10.8873 86.6339 10.094ZM92.7379 10.122C92.7379 9.646 92.6445 9.24 92.4579 8.904C92.2712 8.55867 92.0192 8.29733 91.7019 8.12C91.3845 7.93333 91.0439 7.84 90.6799 7.84C90.3159 7.84 89.9799 7.92867 89.6719 8.106C89.3639 8.28333 89.1119 8.54467 88.9159 8.89C88.7292 9.226 88.6359 9.62733 88.6359 10.094C88.6359 10.5607 88.7292 10.9713 88.9159 11.326C89.1119 11.6713 89.3639 11.9373 89.6719 12.124C89.9892 12.3107 90.3252 12.404 90.6799 12.404C91.0439 12.404 91.3845 12.3153 91.7019 12.138C92.0192 11.9513 92.2712 11.69 92.4579 11.354C92.6445 11.0087 92.7379 10.598 92.7379 10.122ZM100.182 7.854H98.8242V14H96.8362V7.854H95.9542V6.244H96.8362V5.852C96.8362 4.9 97.1068 4.2 97.6482 3.752C98.1895 3.304 99.0062 3.094 100.098 3.122V4.774C99.6222 4.76467 99.2908 4.844 99.1042 5.012C98.9175 5.18 98.8242 5.48333 98.8242 5.922V6.244H100.182V7.854ZM103.412 7.378C103.664 7.00467 104.01 6.70133 104.448 6.468C104.896 6.23467 105.405 6.118 105.974 6.118C106.637 6.118 107.234 6.28133 107.766 6.608C108.308 6.93467 108.732 7.40133 109.04 8.008C109.358 8.60533 109.516 9.30067 109.516 10.094C109.516 10.8873 109.358 11.592 109.04 12.208C108.732 12.8147 108.308 13.286 107.766 13.622C107.234 13.958 106.637 14.126 105.974 14.126C105.396 14.126 104.887 14.014 104.448 13.79C104.019 13.5567 103.674 13.258 103.412 12.894V14H101.452V3.64H103.412V7.378ZM107.514 10.094C107.514 9.62733 107.416 9.226 107.22 8.89C107.034 8.54467 106.782 8.28333 106.464 8.106C106.156 7.92867 105.82 7.84 105.456 7.84C105.102 7.84 104.766 7.93333 104.448 8.12C104.14 8.29733 103.888 8.55867 103.692 8.904C103.506 9.24933 103.412 9.65533 103.412 10.122C103.412 10.5887 103.506 10.9947 103.692 11.34C103.888 11.6853 104.14 11.9513 104.448 12.138C104.766 12.3153 105.102 12.404 105.456 12.404C105.82 12.404 106.156 12.3107 106.464 12.124C106.782 11.9373 107.034 11.6713 107.22 11.326C107.416 10.9807 107.514 10.57 107.514 10.094ZM112.901 7.448C113.153 7.03733 113.479 6.71533 113.881 6.482C114.291 6.24867 114.758 6.132 115.281 6.132V8.19H114.763C114.147 8.19 113.68 8.33467 113.363 8.624C113.055 8.91333 112.901 9.41733 112.901 10.136V14H110.941V6.244H112.901V7.448ZM116.097 10.094C116.097 9.31 116.251 8.61467 116.559 8.008C116.876 7.40133 117.305 6.93467 117.847 6.608C118.388 6.28133 118.99 6.118 119.653 6.118C120.157 6.118 120.637 6.23 121.095 6.454C121.552 6.66867 121.916 6.958 122.187 7.322V3.64H124.175V14H122.187V12.852C121.944 13.2347 121.603 13.5427 121.165 13.776C120.726 14.0093 120.217 14.126 119.639 14.126C118.985 14.126 118.388 13.958 117.847 13.622C117.305 13.286 116.876 12.8147 116.559 12.208C116.251 11.592 116.097 10.8873 116.097 10.094ZM122.201 10.122C122.201 9.646 122.107 9.24 121.921 8.904C121.734 8.55867 121.482 8.29733 121.165 8.12C120.847 7.93333 120.507 7.84 120.143 7.84C119.779 7.84 119.443 7.92867 119.135 8.106C118.827 8.28333 118.575 8.54467 118.379 8.89C118.192 9.226 118.099 9.62733 118.099 10.094C118.099 10.5607 118.192 10.9713 118.379 11.326C118.575 11.6713 118.827 11.9373 119.135 12.124C119.452 12.3107 119.788 12.404 120.143 12.404C120.507 12.404 120.847 12.3153 121.165 12.138C121.482 11.9513 121.734 11.69 121.921 11.354C122.107 11.0087 122.201 10.598 122.201 10.122ZM129.057 14.126C128.422 14.126 127.853 14.014 127.349 13.79C126.845 13.5567 126.444 13.244 126.145 12.852C125.856 12.46 125.697 12.026 125.669 11.55H127.643C127.68 11.8487 127.825 12.096 128.077 12.292C128.338 12.488 128.66 12.586 129.043 12.586C129.416 12.586 129.706 12.5113 129.911 12.362C130.126 12.2127 130.233 12.0213 130.233 11.788C130.233 11.536 130.102 11.3493 129.841 11.228C129.589 11.0973 129.183 10.9573 128.623 10.808C128.044 10.668 127.568 10.5233 127.195 10.374C126.831 10.2247 126.514 9.996 126.243 9.688C125.982 9.38 125.851 8.96467 125.851 8.442C125.851 8.01267 125.972 7.62067 126.215 7.266C126.467 6.91133 126.822 6.63133 127.279 6.426C127.746 6.22067 128.292 6.118 128.917 6.118C129.841 6.118 130.578 6.35133 131.129 6.818C131.68 7.27533 131.983 7.896 132.039 8.68H130.163C130.135 8.372 130.004 8.12933 129.771 7.952C129.547 7.76533 129.244 7.672 128.861 7.672C128.506 7.672 128.231 7.73733 128.035 7.868C127.848 7.99867 127.755 8.18067 127.755 8.414C127.755 8.67533 127.886 8.876 128.147 9.016C128.408 9.14667 128.814 9.282 129.365 9.422C129.925 9.562 130.387 9.70667 130.751 9.856C131.115 10.0053 131.428 10.2387 131.689 10.556C131.96 10.864 132.1 11.2747 132.109 11.788C132.109 12.236 131.983 12.6373 131.731 12.992C131.488 13.3467 131.134 13.6267 130.667 13.832C130.21 14.028 129.673 14.126 129.057 14.126ZM135.678 7.378C135.93 7.00467 136.275 6.70133 136.714 6.468C137.162 6.23467 137.671 6.118 138.24 6.118C138.903 6.118 139.5 6.28133 140.032 6.608C140.573 6.93467 140.998 7.40133 141.306 8.008C141.623 8.60533 141.782 9.30067 141.782 10.094C141.782 10.8873 141.623 11.592 141.306 12.208C140.998 12.8147 140.573 13.286 140.032 13.622C139.5 13.958 138.903 14.126 138.24 14.126C137.661 14.126 137.153 14.014 136.714 13.79C136.285 13.5567 135.939 13.258 135.678 12.894V14H133.718V3.64H135.678V7.378ZM139.78 10.094C139.78 9.62733 139.682 9.226 139.486 8.89C139.299 8.54467 139.047 8.28333 138.73 8.106C138.422 7.92867 138.086 7.84 137.722 7.84C137.367 7.84 137.031 7.93333 136.714 8.12C136.406 8.29733 136.154 8.55867 135.958 8.904C135.771 9.24933 135.678 9.65533 135.678 10.122C135.678 10.5887 135.771 10.9947 135.958 11.34C136.154 11.6853 136.406 11.9513 136.714 12.138C137.031 12.3153 137.367 12.404 137.722 12.404C138.086 12.404 138.422 12.3107 138.73 12.124C139.047 11.9373 139.299 11.6713 139.486 11.326C139.682 10.9807 139.78 10.57 139.78 10.094ZM153.752 9.954C153.752 10.234 153.734 10.486 153.696 10.71H148.026C148.073 11.27 148.269 11.7087 148.614 12.026C148.96 12.3433 149.384 12.502 149.888 12.502C150.616 12.502 151.134 12.1893 151.442 11.564H153.556C153.332 12.3107 152.903 12.9267 152.268 13.412C151.634 13.888 150.854 14.126 149.93 14.126C149.184 14.126 148.512 13.9627 147.914 13.636C147.326 13.3 146.864 12.8287 146.528 12.222C146.202 11.6153 146.038 10.9153 146.038 10.122C146.038 9.31933 146.202 8.61467 146.528 8.008C146.855 7.40133 147.312 6.93467 147.9 6.608C148.488 6.28133 149.165 6.118 149.93 6.118C150.668 6.118 151.326 6.27667 151.904 6.594C152.492 6.91133 152.945 7.364 153.262 7.952C153.589 8.53067 153.752 9.198 153.752 9.954ZM151.722 9.394C151.713 8.89 151.531 8.48867 151.176 8.19C150.822 7.882 150.388 7.728 149.874 7.728C149.389 7.728 148.978 7.87733 148.642 8.176C148.316 8.46533 148.115 8.87133 148.04 9.394H151.722ZM157.143 7.448C157.395 7.03733 157.721 6.71533 158.123 6.482C158.533 6.24867 159 6.132 159.523 6.132V8.19H159.005C158.389 8.19 157.922 8.33467 157.605 8.624C157.297 8.91333 157.143 9.41733 157.143 10.136V14H155.183V6.244H157.143V7.448ZM163.881 6.118C164.46 6.118 164.968 6.23467 165.407 6.468C165.846 6.692 166.191 6.986 166.443 7.35V6.244H168.417V14.056C168.417 14.7747 168.272 15.414 167.983 15.974C167.694 16.5433 167.26 16.9913 166.681 17.318C166.102 17.654 165.402 17.822 164.581 17.822C163.48 17.822 162.574 17.5653 161.865 17.052C161.165 16.5387 160.768 15.8387 160.675 14.952H162.621C162.724 15.3067 162.943 15.5867 163.279 15.792C163.624 16.0067 164.04 16.114 164.525 16.114C165.094 16.114 165.556 15.9413 165.911 15.596C166.266 15.26 166.443 14.7467 166.443 14.056V12.852C166.191 13.216 165.841 13.5193 165.393 13.762C164.954 14.0047 164.45 14.126 163.881 14.126C163.228 14.126 162.63 13.958 162.089 13.622C161.548 13.286 161.118 12.8147 160.801 12.208C160.493 11.592 160.339 10.8873 160.339 10.094C160.339 9.31 160.493 8.61467 160.801 8.008C161.118 7.40133 161.543 6.93467 162.075 6.608C162.616 6.28133 163.218 6.118 163.881 6.118ZM166.443 10.122C166.443 9.646 166.35 9.24 166.163 8.904C165.976 8.55867 165.724 8.29733 165.407 8.12C165.09 7.93333 164.749 7.84 164.385 7.84C164.021 7.84 163.685 7.92867 163.377 8.106C163.069 8.28333 162.817 8.54467 162.621 8.89C162.434 9.226 162.341 9.62733 162.341 10.094C162.341 10.5607 162.434 10.9713 162.621 11.326C162.817 11.6713 163.069 11.9373 163.377 12.124C163.694 12.3107 164.03 12.404 164.385 12.404C164.749 12.404 165.09 12.3153 165.407 12.138C165.724 11.9513 165.976 11.69 166.163 11.354C166.35 11.0087 166.443 10.598 166.443 10.122ZM177.541 9.954C177.541 10.234 177.523 10.486 177.485 10.71H171.815C171.862 11.27 172.058 11.7087 172.403 12.026C172.749 12.3433 173.173 12.502 173.677 12.502C174.405 12.502 174.923 12.1893 175.231 11.564H177.345C177.121 12.3107 176.692 12.9267 176.057 13.412C175.423 13.888 174.643 14.126 173.719 14.126C172.973 14.126 172.301 13.9627 171.703 13.636C171.115 13.3 170.653 12.8287 170.317 12.222C169.991 11.6153 169.827 10.9153 169.827 10.122C169.827 9.31933 169.991 8.61467 170.317 8.008C170.644 7.40133 171.101 6.93467 171.689 6.608C172.277 6.28133 172.954 6.118 173.719 6.118C174.457 6.118 175.115 6.27667 175.693 6.594C176.281 6.91133 176.734 7.364 177.051 7.952C177.378 8.53067 177.541 9.198 177.541 9.954ZM175.511 9.394C175.502 8.89 175.32 8.48867 174.965 8.19C174.611 7.882 174.177 7.728 173.663 7.728C173.178 7.728 172.767 7.87733 172.431 8.176C172.105 8.46533 171.904 8.87133 171.829 9.394H175.511ZM181.254 7.854V11.606C181.254 11.8673 181.315 12.0587 181.436 12.18C181.567 12.292 181.781 12.348 182.08 12.348H182.99V14H181.758C180.106 14 179.28 13.1973 179.28 11.592V7.854H178.356V6.244H179.28V4.326H181.254V6.244H182.99V7.854H181.254ZM191.61 9.954C191.61 10.234 191.591 10.486 191.554 10.71H185.884C185.93 11.27 186.126 11.7087 186.472 12.026C186.817 12.3433 187.242 12.502 187.746 12.502C188.474 12.502 188.992 12.1893 189.3 11.564H191.414C191.19 12.3107 190.76 12.9267 190.126 13.412C189.491 13.888 188.712 14.126 187.788 14.126C187.041 14.126 186.369 13.9627 185.772 13.636C185.184 13.3 184.722 12.8287 184.386 12.222C184.059 11.6153 183.896 10.9153 183.896 10.122C183.896 9.31933 184.059 8.61467 184.386 8.008C184.712 7.40133 185.17 6.93467 185.758 6.608C186.346 6.28133 187.022 6.118 187.788 6.118C188.525 6.118 189.183 6.27667 189.762 6.594C190.35 6.91133 190.802 7.364 191.12 7.952C191.446 8.53067 191.61 9.198 191.61 9.954ZM189.58 9.394C189.57 8.89 189.388 8.48867 189.034 8.19C188.679 7.882 188.245 7.728 187.732 7.728C187.246 7.728 186.836 7.87733 186.5 8.176C186.173 8.46533 185.972 8.87133 185.898 9.394H189.58ZM195 7.378C195.252 7.00467 195.598 6.70133 196.036 6.468C196.484 6.23467 196.993 6.118 197.562 6.118C198.225 6.118 198.822 6.28133 199.354 6.608C199.896 6.93467 200.32 7.40133 200.628 8.008C200.946 8.60533 201.104 9.30067 201.104 10.094C201.104 10.8873 200.946 11.592 200.628 12.208C200.32 12.8147 199.896 13.286 199.354 13.622C198.822 13.958 198.225 14.126 197.562 14.126C196.984 14.126 196.475 14.014 196.036 13.79C195.607 13.5567 195.262 13.258 195 12.894V14H193.04V3.64H195V7.378ZM199.102 10.094C199.102 9.62733 199.004 9.226 198.808 8.89C198.622 8.54467 198.37 8.28333 198.052 8.106C197.744 7.92867 197.408 7.84 197.044 7.84C196.69 7.84 196.354 7.93333 196.036 8.12C195.728 8.29733 195.476 8.55867 195.28 8.904C195.094 9.24933 195 9.65533 195 10.122C195 10.5887 195.094 10.9947 195.28 11.34C195.476 11.6853 195.728 11.9513 196.036 12.138C196.354 12.3153 196.69 12.404 197.044 12.404C197.408 12.404 197.744 12.3107 198.052 12.124C198.37 11.9373 198.622 11.6713 198.808 11.326C199.004 10.9807 199.102 10.57 199.102 10.094Z" fill="#0C1821"/>
<rect x="48" y="22" width="44" height="16" rx="2" fill="#F9F9FA"/>
<path d="M57.379 32.295H54.035L53.419 34H52.363L55.135 26.377H56.29L59.051 34H57.995L57.379 32.295ZM57.093 31.481L55.707 27.609L54.321 31.481H57.093ZM62.6461 26.333C63.4821 26.333 64.2044 26.4907 64.8131 26.806C65.4291 27.114 65.8984 27.5577 66.2211 28.137C66.5511 28.7163 66.7161 29.3983 66.7161 30.183C66.7161 30.9677 66.5511 31.6497 66.2211 32.229C65.8984 32.801 65.4291 33.241 64.8131 33.549C64.2044 33.8497 63.4821 34 62.6461 34H60.2591V26.333H62.6461ZM62.6461 33.175C63.6361 33.175 64.3914 32.9147 64.9121 32.394C65.4328 31.866 65.6931 31.129 65.6931 30.183C65.6931 29.2297 65.4291 28.4853 64.9011 27.95C64.3804 27.4147 63.6288 27.147 62.6461 27.147H61.2601V33.175H62.6461ZM75.8135 26.388V34H74.8125V28.324L72.2825 34H71.5785L69.0375 28.313V34H68.0365V26.388H69.1145L71.9305 32.68L74.7465 26.388H75.8135ZM78.5121 26.333V34H77.5111V26.333H78.5121ZM86.2461 34H85.2451L81.2191 27.895V34H80.2181V26.322H81.2191L85.2451 32.416V26.322H86.2461V34Z" fill="#1D1E20"/>
<path d="M226.6 17.4583L221.167 22.8916C220.525 23.5333 219.475 23.5333 218.833 22.8916L213.4 17.4583" stroke="#4A4A4C" stroke-width="1.5" stroke-miterlimit="10" stroke-linecap="round" stroke-linejoin="round"/>
</svg>
